<?xml version="1.0" encoding="utf-8"?>
<!-- Generator: Adobe Illustrator 19.1.0, SVG Export Plug-In . SVG Version: 6.00 Build 0)  -->
<svg version="1.1" id="Layer_1" xmlns="http://www.w3.org/2000/svg" xmlns:xlink="http://www.w3.org/1999/xlink" x="0px" y="0px"
	 viewBox="0 0 112.8 392.8" style="enable-background:new 0 0 112.8 392.8;" xml:space="preserve">
<style type="text/css">
	.st0{fill:#B5B6BA;}
	.st1{fill:#555555;}
	.st2{fill:#C7CAD1;}
	.st3{fill:#CCCDCF;}
	.st4{opacity:0.2;fill:url(#SVGID_1_);}
	.st5{fill:#FFFFFF;}
	.st6{fill:#2B2C33;}
	.st7{fill:#4AFFF1;}
	.st8{fill:#231F20;}
	.st9{fill:none;stroke:#231F20;stroke-width:1.5751;stroke-miterlimit:10;}
	.st10{fill:#6B6B6B;}
	.st11{fill:#CCCDCF;stroke:#2B2C33;stroke-width:1.0483;stroke-miterlimit:10;}
	.st12{fill:none;stroke:#CCCDCF;stroke-width:1.2552;stroke-miterlimit:10;}
</style>
<g>
	<circle class="st0" cx="11.2" cy="220.7" r="8.6"/>
	<path class="st0" d="M103.6,226.4c0,6.3-4.4,9.1-9.9,9.1c-5.5,0-8.3-5-8.3-11.3s2.8-15,8.3-15C99.2,209.1,103.6,217.4,103.6,226.4z
		"/>
	<polygon class="st1" points="97.9,251.2 111.2,236.9 85.7,213.1 72.4,227.3 	"/>
	<path class="st0" d="M91.1,222c-0.9,5-2.2,6.2-3.4,6c-1.2-0.2-1.9-2.1-1-6.8c1.6-8.7,2.2-6.2,3.4-6C91.3,215.4,92.6,214.1,91.1,222
		z"/>
	<path class="st2" d="M104.1,157.5h-0.3l-4.8-47H99l-1.4-13.2l-0.4-4.4l0-0.1l-0.6-5.4c-0.1-0.9-0.9-1.7-1.7-1.9L66,78.2l-13.4,5.6
		l-11.5-5.9l-30.5,7.6c-0.8,0.2-1.6,1.3-1.7,2.2l-2.4,22.8h0.1l-4.8,47H1.6l0.1,1.8l-0.1,0.8l0.1,0.1l2.6,54.3h13.3V162l0.3,0
		l6.1-38.2l4.2,67.6h48.9l4.1-67.4l5.6,38l-0.3,0v52.4h14.6l2.6-54h0.1l-0.1-1L104.1,157.5z"/>
	<polygon class="st3" points="41.7,69.8 41.7,77.8 41.1,77.9 52.8,92.8 66.8,78.4 63.9,77.8 63.9,69.9 	"/>
	<linearGradient id="SVGID_1_" gradientUnits="userSpaceOnUse" x1="52.805" y1="82.5353" x2="52.805" y2="69.2208">
		<stop  offset="0" style="stop-color:#000000;stop-opacity:0"/>
		<stop  offset="1" style="stop-color:#000000"/>
	</linearGradient>
	<rect x="41.7" y="69.2" class="st4" width="22.2" height="13.3"/>
	<polygon class="st5" points="40.6,96.5 39.6,78.2 41.6,74.1 52.6,83.8 	"/>
	<polygon class="st5" points="64.2,96.5 66,78.2 64,74.1 52.6,83.8 	"/>
	<path class="st3" d="M72.1,62.5l2.5-9.6c0.2-0.9,0.4-2.2,0.5-3.3c0.3,0.1,0.6,0.2,0.9,0.2c1.2,0,2.2-1,2.2-2.2l1.3-11.8
		c0-0.2,0.1-0.3,0.1-0.5c0-1.2-1-2.2-2.2-2.2c-1.2,0-2.2,1-2.2,2.2h0v-6.7c0-0.2,0-0.4-0.1-0.6c0-0.6,0.1-1.2,0.1-1.8
		c0-12.5-18.6-22.6-22.6-22.6C40.1,3.6,30,13.7,30,26.2c0,0.8,0,1.5,0.1,2.3c0,0,0,0.1,0,0.1l0.3,6.6c-0.1-1.2-1-2.1-2.2-2.1
		c-1.2,0-2.2,1-2.2,2.2c0,0.2,0,0.3,0.1,0.5l1.3,11.8c0,1.2,1,2.2,2.2,2.2c0.6,0,1.1-0.2,1.5-0.6c0.1,1.1,0.3,2.3,0.5,3.2l1.9,8.8
		c0.3,1.3,1.2,3.1,2.1,4l7.5,8.1c0.9,1,2.7,1.7,4,1.7h11.3c1.3,0,3.1-0.7,4.1-1.6l7.3-7C70.7,65.5,71.8,63.8,72.1,62.5z"/>
	<g>
		<polygon class="st6" points="54,66.1 51.2,66.1 50.9,63 54.3,63 		"/>
		<path class="st6" d="M75.2,35.3v-6.7c0-0.2,0-1,0-1.2c0-0.6,0-0.6,0-1.2c0-0.4,0-0.7,0-1.1L71.7,21c0,0,3.5,31.2-0.9,38.6
			c-1.3,2.1-4.7,4.3-8,5.8c0-2.6,0-7.7-0.5-8.8c-1-2-9.4-2.5-9.4-2.5V56c0,0,6,0.2,7.2,1.7c0.6,0.7,0.4,6.9,0.4,8.7
			c-1.2,0.5-2.4,0.8-3.3,1c-2.3,0.4-7,0.6-9.2,0c-1-0.2-2.1-0.7-3.3-1.4c-0.1-2.2-0.2-7.7,0.4-8.3c1.2-1.5,7.2-1.7,7.2-1.7v-1.9
			c0,0-8.4,0.4-9.4,2.5c-0.5,1-0.5,5.4-0.5,8.1c-3.2-2-6.3-4.7-7.5-6.9c-3.8-7.2-1.2-32.6-1.2-32.6H30c0,0.4,0,0.7,0,1.1
			c0,0.8,0,1.5,0.1,2.3c0,0,0,0.1,0,0.1l0.3,6.6l0.7,14.1c0.1,1.1,0.3,2.3,0.5,3.2l1.9,8.8c0.3,1.3,1.2,3.1,2.1,4l7.5,8.1
			c0.9,1,2.7,1.7,4,1.7h11.3c1.3,0,3.1-0.7,4.1-1.6l7.3-7c0.9-0.9,2-2.7,2.3-3.9l2.5-9.6c0.2-0.9,0.4-2.2,0.5-3.3L75.2,35.3
			L75.2,35.3z"/>
	</g>
	<polygon class="st7" points="50.1,85 50.1,90.7 40.6,93.5 40.6,82.2 	"/>
	<polygon class="st7" points="54.8,90.7 54.8,85 64.2,82.2 64.2,93.5 	"/>
	<rect x="50.1" y="84.7" class="st7" width="4.7" height="6.3"/>
	<g>
		<path class="st8" d="M68.4,42.6H57.5c-1.7,0-3.2-1.4-3.2-3.2V37c0-1.7,1.4-3.2,3.2-3.2h10.9c1.7,0,3.2,1.4,3.2,3.2v2.5
			C71.6,41.2,70.2,42.6,68.4,42.6z M57.5,35.4c-0.9,0-1.6,0.7-1.6,1.6v2.5c0,0.9,0.7,1.6,1.6,1.6h10.9c0.9,0,1.6-0.7,1.6-1.6V37
			c0-0.9-0.7-1.6-1.6-1.6H57.5z"/>
	</g>
	<g>
		<path class="st8" d="M48,42.6H36.8c-1.7,0-3.2-1.4-3.2-3.2V37c0-1.7,1.4-3.2,3.2-3.2H48c1.7,0,3.2,1.4,3.2,3.2v2.5
			C51.2,41.2,49.7,42.6,48,42.6z M36.8,35.4c-0.9,0-1.6,0.7-1.6,1.6v2.5c0,0.9,0.7,1.6,1.6,1.6H48c0.9,0,1.6-0.7,1.6-1.6V37
			c0-0.9-0.7-1.6-1.6-1.6H36.8z"/>
	</g>
	<g>
		<rect x="49.8" y="34.8" class="st8" width="5.9" height="1.6"/>
	</g>
	<line class="st9" x1="69.3" y1="34.9" x2="75.7" y2="34.9"/>
	<line class="st9" x1="30" y1="34.9" x2="35.8" y2="34.9"/>
	<path class="st6" d="M75.2,25c0,0-0.4-0.1-3-1.3c-3-1.4-8.7-5.1-14.6-5.1c-5.5,0-15.1,4.6-20.4,5.8c-5.7,1.3-7.3,0.9-7.3,0.9
		s0.7-9.5,2.1-12c2-3.6,8.4-11.2,12.5-11.6c5-0.5,23.9,6.2,28.8,12.2C75,15.9,75.2,25,75.2,25z"/>
	<path class="st6" d="M55.7,18.3c0,0-7.2,1.7-13.4,5c-5.6,2.9-10.3,8.7-10.3,8.7l-0.6-12h13.8L55.7,18.3z"/>
	<polygon class="st6" points="77.3,191.5 28.4,191.5 28.8,221.5 28.7,221.5 28.7,285.7 29.7,382.5 46.3,382.5 49.2,286.5 
		49.2,286.5 52.8,221.5 52.9,221.5 56.4,286.5 56.5,286.5 59.3,382.5 75.9,382.5 76.7,285.7 76.7,220.5 76.9,220.5 	"/>
	<polygon class="st10" points="46.3,391.2 8.2,391.2 8.2,388.4 29.7,381.9 46.3,381.9 	"/>
	<polygon class="st10" points="59.4,391.2 97.5,391.2 97.5,388.4 76,381.9 59.4,381.9 	"/>
	<rect x="29.3" y="194" class="st3" width="46.9" height="5.9"/>
	<rect x="46.4" y="192.6" class="st11" width="12.7" height="8.7"/>
	<path class="st12" d="M65.1,202.3c0,5.5,4.4,9.9,9.9,9.9"/>
	<path class="st12" d="M30.7,212.2c5.5,0,9.9-4.4,9.9-9.9"/>
</g>
</svg>
